<svg xmlns="http://www.w3.org/2000/svg" fill="none" viewBox="0 0 16 16" id="Add-Circle--Streamline-Sharp" height="16" width="16">
  <desc>
    Add Circle Streamline Icon: https://streamlinehq.com
  </desc>
  <g id="Solid/01-Interface-Essential/27-Add-Remove-Delete/add-circle--button-remove-cross-add-buttons-plus-circle-+-mathematics-math">
    <path id="Subtract" fill="currentColor" fill-rule="evenodd" d="M2.3431466666666667 2.3431466666666667C3.8434399999999997 0.8428533333333333 5.878266666666666 0 8 0s4.156533333333333 0.8428533333333333 5.656866666666667 2.3431466666666667C15.157133333333334 3.8434399999999997 16 5.878266666666666 16 8s-0.8428666666666667 4.156533333333333 -2.3431333333333333 5.656866666666667C12.156533333333332 15.157133333333334 10.121733333333333 16 8 16c-2.1217333333333332 0 -4.15656 -0.8428666666666667 -5.656853333333332 -2.3431333333333333C0.8428533333333333 12.156533333333332 0 10.121733333333333 0 8c0 -2.1217333333333332 0.8428533333333333 -4.15656 2.3431466666666667 -5.656853333333332ZM7 12v-3H4v-2h3V4h2v3H12v2h-3V12h-2Z" clip-rule="evenodd" stroke-width="0.6667"></path>
  </g>
</svg>