<svg width="16" height="16" viewBox="0 0 16 16" fill="none" xmlns="http://www.w3.org/2000/svg">
	<path fill-rule="evenodd" clip-rule="evenodd"
		d="M0 8.00001C0 5.87827 0.842853 3.84345 2.34314 2.34315C3.84344 0.842862 5.87825 2.82384e-05 8.00001 0C10.1217 1.88818e-05 12.1566 0.842862 13.6569 2.34315C15.1571 3.84345 16 5.87826 16 8.00001C16 10.1218 15.1571 12.1566 13.6569 13.6569C12.1566 15.1572 10.1217 16 8.00001 16C5.87825 16 3.84344 15.1572 2.34314 13.6569C0.842853 12.1566 0 10.1217 0 8.00001ZM10.1213 11.5355L8 9.41422L5.87868 11.5355L4.46446 10.1213L6.58579 8.00001L4.46446 5.87869L5.87868 4.46447L8 6.58579L10.1213 4.46447L11.5355 5.87869L9.41421 8.00001L11.5355 10.1213L10.1213 11.5355Z"
		fill="currentColor" />
</svg>