<svg xmlns="http://www.w3.org/2000/svg" fill="none" viewBox="0 0 16 16" id="Dark-Dislay-Mode--Streamline-Sharp" height="16" width="16">
  <desc>
    Dark Dislay Mode Streamline Icon: https://streamlinehq.com
  </desc>
  <g id="Solid/01-Interface-Essential/23-Lighting/dark-dislay-mode">
    <path id="Subtract" fill="currentColor" fill-rule="evenodd" d="M2.3431466666666667 13.656866666666666C0.8428533333333333 12.156533333333332 0 10.121733333333333 0 8c0 -2.1217333333333332 0.8428533333333333 -4.15656 2.3431466666666667 -5.656853333333332C3.8434399999999997 0.8428533333333333 5.878266666666666 0 8 0s4.156533333333333 0.8428533333333333 5.656866666666667 2.3431466666666667C15.157133333333334 3.8434399999999997 16 5.878266666666666 16 8s-0.8428666666666667 4.156533333333333 -2.3431333333333333 5.656866666666667C12.156533333333332 15.157133333333334 10.121733333333333 16 8 16c-2.1217333333333332 0 -4.15656 -0.8428666666666667 -5.656853333333332 -2.3431333333333333ZM10.333266666666667 3.9585C9.629933333333334 3.5524733333333334 8.826266666666665 3.333333333333333 8 3.333333333333333c-1.2376666666666667 0 -2.42466 0.4916666666666667 -3.299833333333333 1.3668333333333333C3.8249999999999997 5.575339999999999 3.333333333333333 6.762333333333332 3.333333333333333 8s0.4916666666666667 2.4246666666666665 1.3668333333333333 3.2998C5.575339999999999 12.174999999999999 6.762333333333332 12.666666666666666 8 12.666666666666666c0.8262666666666667 0 1.6299333333333332 -0.21913333333333332 2.3332666666666664 -0.6252l1.0001333333333333 -0.5773333333333333 -1.0001333333333333 -0.5773333333333333c-0.2501333333333333 -0.14446666666666666 -0.4825333333333333 -0.3219333333333333 -0.6904 -0.5297999999999999 -0.6250666666666667 -0.6250666666666667 -0.9762666666666666 -1.4729333333333332 -0.9762666666666666 -2.3569999999999998 0 -0.8840666666666667 0.3512 -1.7319 0.9762666666666666 -2.35702 0.20786666666666667 -0.20782666666666666 0.44026666666666664 -0.38534 0.6904 -0.5297533333333333l1.0001333333333333 -0.57736 -1.0001333333333333 -0.5773666666666666Z" clip-rule="evenodd" stroke-width="0.6667"></path>
  </g>
</svg>