<svg xmlns="http://www.w3.org/2000/svg" fill="none" viewBox="0 0 16 16" id="Light-Display-Mode--Streamline-Sharp" height="16" width="16">
  <desc>
    Light Display Mode Streamline Icon: https://streamlinehq.com
  </desc>
  <g id="Solid/01-Interface-Essential/23-Lighting/light-display-mode">
    <path id="Subtract" fill="currentColor" fill-rule="evenodd" d="M2.3431466666666667 13.656866666666666C0.8428533333333333 12.156533333333332 0 10.121733333333333 0 8c0 -2.1217333333333332 0.8428533333333333 -4.15656 2.3431466666666667 -5.656853333333332C3.8434399999999997 0.8428533333333333 5.878266666666666 0 8 0s4.156533333333333 0.8428533333333333 5.656866666666667 2.3431466666666667C15.157133333333334 3.8434399999999997 16 5.878266666666666 16 8s-0.8428666666666667 4.156533333333333 -2.3431333333333333 5.656866666666667C12.156533333333332 15.157133333333334 10.121733333333333 16 8 16c-2.1217333333333332 0 -4.15656 -0.8428666666666667 -5.656853333333332 -2.3431333333333333ZM7.333333333333333 2.6666666666666665v1.3333333333333333h1.3333333333333333V2.6666666666666665h-1.3333333333333333Zm0 9.333333333333332v1.3333333333333333h1.3333333333333333v-1.3333333333333333h-1.3333333333333333Zm3.0236 -7.299753333333333 0.9427999999999999 -0.9428066666666666 0.9427999999999999 0.9428066666666666 -0.9427999999999999 0.9428066666666666 -0.9427999999999999 -0.9428066666666666ZM4.700146666666667 10.357066666666666 3.7573333333333334 11.299866666666667l0.9428133333333333 0.9427999999999999 0.9428066666666666 -0.9427999999999999 -0.9428066666666666 -0.9427999999999999ZM12 7.333333333333333h1.3333333333333333v1.3333333333333333h-1.3333333333333333v-1.3333333333333333ZM4 7.333333333333333H2.6666666666666665v1.3333333333333333h1.3333333333333333v-1.3333333333333333Zm7.299733333333333 3.0236 0.9427999999999999 0.9427999999999999 -0.9427999999999999 0.9427999999999999 -0.9427999999999999 -0.9427999999999999 0.9427999999999999 -0.9427999999999999ZM5.642953333333333 4.700146666666667 4.700146666666667 3.7573333333333334 3.7573333333333334 4.700146666666667l0.9428133333333333 0.9428066666666666 0.9428066666666666 -0.9428066666666666ZM10.666666666666666 8c0 1.4727333333333332 -1.1939333333333333 2.6666666666666665 -2.6666666666666665 2.6666666666666665 -1.47276 0 -2.6666666666666665 -1.1939333333333333 -2.6666666666666665 -2.6666666666666665 0 -1.47276 1.1939066666666664 -2.6666666666666665 2.6666666666666665 -2.6666666666666665 1.4727333333333332 0 2.6666666666666665 1.1939066666666664 2.6666666666666665 2.6666666666666665Z" clip-rule="evenodd" stroke-width="0.6667"></path>
  </g>
</svg>